RBDS020runT25_grf
version=1
nRows=15
nColumns=19
inDegrees=no
endheader
time	ground_force_r_vx	ground_force_r_vy	ground_force_r_vz	ground_force_r_px	ground_force_r_py	ground_force_r_pz	ground_force_r_mx	ground_force_r_my	ground_force_r_mz	ground_force_l_vx	ground_force_l_vy	ground_force_l_vz	ground_force_l_px	ground_force_l_py	ground_force_l_pz	ground_force_l_mx	ground_force_l_my	ground_force_l_mz
     14.99900000	    -45.42316680	    521.41063614	      4.90734800	      2.33324295	      0.00000000	      1.09559933	      0.00000000	      4.10398875	      0.00000000	      0.00000000	      0.00000000	      0.00000000	      0.00000000	      0.00000000	      0.00000000	      0.00000000	      0.00000000	      0.00000000
     15.00000000	    -46.82764780	    544.32145031	      4.86941639	      2.33278877	      0.00000000	      1.09549420	      0.00000000	      4.44065739	      0.00000000	      0.00000000	      0.00000000	      0.00000000	      0.00000000	      0.00000000	      0.00000000	      0.00000000	      0.00000000	      0.00000000
     15.00100000	    -48.42240485	    566.06471587	      4.68585002	      2.33226692	      0.00000000	      1.09539945	      0.00000000	      4.74937731	      0.00000000	      0.00000000	      0.00000000	      0.00000000	      0.00000000	      0.00000000	      0.00000000	      0.00000000	      0.00000000	      0.00000000
     15.00200000	    -50.01716190	    587.80798143	      4.50228366	      2.33174508	      0.00000000	      1.09530471	      0.00000000	      5.05809723	      0.00000000	      0.00000000	      0.00000000	      0.00000000	      0.00000000	      0.00000000	      0.00000000	      0.00000000	      0.00000000	      0.00000000
     15.00300000	    -51.61191895	    609.55124700	      4.31871730	      2.33122323	      0.00000000	      1.09520996	      0.00000000	      5.36681716	      0.00000000	      0.00000000	      0.00000000	      0.00000000	      0.00000000	      0.00000000	      0.00000000	      0.00000000	      0.00000000	      0.00000000
     15.00400000	    -53.32899682	    630.47116638	      4.02925951	      2.33064886	      0.00000000	      1.09512314	      0.00000000	      5.65292116	      0.00000000	      0.00000000	      0.00000000	      0.00000000	      0.00000000	      0.00000000	      0.00000000	      0.00000000	      0.00000000	      0.00000000
     15.00500000	    -55.10723512	    650.97941268	      3.68685600	      2.33004824	      0.00000000	      1.09504027	      0.00000000	      5.92771720	      0.00000000	      0.00000000	      0.00000000	      0.00000000	      0.00000000	      0.00000000	      0.00000000	      0.00000000	      0.00000000	      0.00000000
     15.00600000	    -56.88547341	    671.48765898	      3.34445250	      2.32944761	      0.00000000	      1.09495740	      0.00000000	      6.20251325	      0.00000000	      0.00000000	      0.00000000	      0.00000000	      0.00000000	      0.00000000	      0.00000000	      0.00000000	      0.00000000	      0.00000000
     15.00700000	    -58.71852274	    691.57577083	      2.94599869	      2.32881759	      0.00000000	      1.09487897	      0.00000000	      6.46456440	      0.00000000	      0.00000000	      0.00000000	      0.00000000	      0.00000000	      0.00000000	      0.00000000	      0.00000000	      0.00000000	      0.00000000
     15.00800000	    -60.66119415	    710.82361380	      2.43544428	      2.32812875	      0.00000000	      1.09480940	      0.00000000	      6.70112578	      0.00000000	      0.00000000	      0.00000000	      0.00000000	      0.00000000	      0.00000000	      0.00000000	      0.00000000	      0.00000000	      0.00000000
     15.00900000	    -62.60386556	    730.07145676	      1.92488987	      2.32743992	      0.00000000	      1.09473983	      0.00000000	      6.93768716	      0.00000000	      0.00000000	      0.00000000	      0.00000000	      0.00000000	      0.00000000	      0.00000000	      0.00000000	      0.00000000	      0.00000000
     15.01000000	    -64.54653697	    749.31929973	      1.41433546	      2.32675109	      0.00000000	      1.09467026	      0.00000000	      7.17424853	      0.00000000	      0.00000000	      0.00000000	      0.00000000	      0.00000000	      0.00000000	      0.00000000	      0.00000000	      0.00000000	      0.00000000
     15.01100000	    -66.62282591	    767.31902433	      0.73107094	      2.32596648	      0.00000000	      1.09461524	      0.00000000	      7.36996453	      0.00000000	      0.00000000	      0.00000000	      0.00000000	      0.00000000	      0.00000000	      0.00000000	      0.00000000	      0.00000000	      0.00000000
     15.01200000	    -68.69911484	    785.31874893	      0.04780641	      2.32518187	      0.00000000	      1.09456022	      0.00000000	      7.56568052	      0.00000000	      0.00000000	      0.00000000	      0.00000000	      0.00000000	      0.00000000	      0.00000000	      0.00000000	      0.00000000	      0.00000000
     15.01300000	    -70.77540377	    803.31847353	     -0.63545811	      2.32439726	      0.00000000	      1.09450520	      0.00000000	      7.76139652	      0.00000000	      0.00000000	      0.00000000	      0.00000000	      0.00000000	      0.00000000	      0.00000000	      0.00000000	      0.00000000	      0.00000000
